# Blender 4.2.1 LTS
# www.blender.org
mtllib slash.mtl
o slash_curve
v -1.053050 0.000000 -0.187833
v -1.092850 0.037066 -0.142722
v -1.169475 0.090772 -0.055870
v -1.218766 0.118208 0.000000
v -1.268058 0.090929 0.055870
v -1.344683 0.037382 0.142722
v -1.384482 0.000000 0.187833
v -0.965683 0.000000 -0.106438
v -0.999640 0.035633 -0.059625
v -1.065017 0.087261 0.030502
v -1.107073 0.113637 0.088479
v -1.149129 0.087413 0.146457
v -1.214506 0.035936 0.236584
v -1.248464 0.000000 0.283397
v -0.853575 0.000000 -0.020631
v -0.882617 0.034199 0.026671
v -0.938532 0.083751 0.117739
v -0.974501 0.109066 0.176321
v -1.010470 0.083897 0.234903
v -1.066384 0.034491 0.325971
v -1.095427 0.000000 0.373272
v -0.723417 0.000000 0.064328
v -0.748186 0.032766 0.111387
v -0.795872 0.080241 0.201988
v -0.826548 0.104494 0.260270
v -0.857224 0.080380 0.318552
v -0.904911 0.033045 0.409153
v -0.929679 0.000000 0.456212
v -0.582238 0.000000 0.143799
v -0.603007 0.031333 0.190217
v -0.642992 0.076730 0.279585
v -0.668714 0.099923 0.337074
v -0.694436 0.076864 0.394562
v -0.734422 0.031600 0.483930
v -0.755191 0.000000 0.530349
v -0.436742 0.000000 0.213848
v -0.453495 0.029899 0.259391
v -0.485749 0.073220 0.347073
v -0.506498 0.095352 0.403478
v -0.527247 0.073348 0.459882
v -0.559501 0.030154 0.547564
v -0.576254 0.000000 0.593107
v -0.293678 0.000000 0.270946
v -0.306100 0.028466 0.315444
v -0.330014 0.069710 0.401117
v -0.345398 0.090781 0.456228
v -0.360782 0.069831 0.511340
v -0.384697 0.028708 0.597012
v -0.397119 0.000000 0.641511
v -0.160215 0.000000 0.311991
v -0.167588 0.027032 0.355240
v -0.181783 0.066200 0.438508
v -0.190915 0.086209 0.492072
v -0.200046 0.066315 0.545636
v -0.214241 0.027263 0.628904
v -0.221614 0.000000 0.672153
v -0.051276 0.000000 0.334784
v -0.050620 0.025599 0.376326
v -0.049358 0.062689 0.456305
v -0.048546 0.081638 0.507755
v -0.047734 0.062799 0.559204
v -0.046471 0.025817 0.639184
v -0.045815 0.000000 0.680726
v 0.052425 0.000000 0.340885
v 0.062245 0.022535 0.376116
v 0.081150 0.055185 0.443945
v 0.093311 0.071866 0.487579
v 0.105472 0.055281 0.531212
v 0.124377 0.022727 0.599041
v 0.134197 0.000000 0.634272
v 0.183389 0.000000 0.306814
v 0.198297 0.019470 0.334676
v 0.227000 0.047681 0.388320
v 0.245464 0.062093 0.422827
v 0.263928 0.047764 0.457335
v 0.292631 0.019636 0.510978
v 0.307540 0.000000 0.538840
v 0.334390 0.000000 0.232260
v 0.350441 0.016406 0.253505
v 0.381345 0.040177 0.294407
v 0.401225 0.052321 0.320719
v 0.421104 0.040247 0.347030
v 0.452008 0.016546 0.387933
v 0.468059 0.000000 0.409177
v 0.491128 0.000000 0.123754
v 0.506204 0.013342 0.139297
v 0.535230 0.032673 0.169222
v 0.553902 0.042548 0.188471
v 0.572574 0.032729 0.207721
v 0.601601 0.013455 0.237645
v 0.616677 0.000000 0.253188
v 0.643273 0.000000 -0.010942
v 0.656131 0.010277 -0.000316
v 0.680885 0.025168 0.020143
v 0.696808 0.032776 0.033303
v 0.712732 0.025212 0.046464
v 0.737486 0.010365 0.066923
v 0.750343 0.000000 0.077549
v 0.782475 0.000000 -0.164272
v 0.792268 0.007213 -0.157858
v 0.811124 0.017664 -0.145510
v 0.823253 0.023003 -0.137567
v 0.835382 0.017695 -0.129623
v 0.854238 0.007275 -0.117275
v 0.864031 0.000000 -0.110862
v 0.901355 0.000000 -0.329226
v 0.907405 0.004149 -0.326271
v 0.919053 0.010160 -0.320581
v 0.926547 0.013231 -0.316921
v 0.934040 0.010178 -0.313261
v 0.945688 0.004184 -0.307571
v 0.951738 0.000000 -0.304615
v 0.993010 0.000000 -0.499742
v 0.994689 0.001084 -0.499213
v 0.997921 0.002656 -0.498196
v 1.000000 0.003458 -0.497541
v 1.002079 0.002660 -0.496886
v 1.005311 0.001094 -0.495869
v 1.006990 0.000000 -0.495340
v -1.092850 -0.037066 -0.142722
v -1.169475 -0.090772 -0.055870
v -1.218766 -0.118208 0.000000
v -1.268058 -0.090929 0.055870
v -1.344683 -0.037382 0.142722
v -0.999640 -0.035633 -0.059625
v -1.065017 -0.087261 0.030502
v -1.107073 -0.113637 0.088479
v -1.149129 -0.087413 0.146457
v -1.214506 -0.035936 0.236584
v -0.882617 -0.034199 0.026671
v -0.938532 -0.083751 0.117739
v -0.974501 -0.109066 0.176321
v -1.010470 -0.083897 0.234903
v -1.066384 -0.034491 0.325971
v -0.748186 -0.032766 0.111387
v -0.795872 -0.080241 0.201988
v -0.826548 -0.104494 0.260270
v -0.857224 -0.080380 0.318552
v -0.904911 -0.033045 0.409153
v -0.603007 -0.031333 0.190217
v -0.642992 -0.076730 0.279585
v -0.668714 -0.099923 0.337074
v -0.694436 -0.076864 0.394562
v -0.734422 -0.031600 0.483930
v -0.453495 -0.029899 0.259391
v -0.485749 -0.073220 0.347073
v -0.506498 -0.095352 0.403478
v -0.527247 -0.073348 0.459882
v -0.559501 -0.030154 0.547564
v -0.306100 -0.028466 0.315444
v -0.330014 -0.069710 0.401117
v -0.345398 -0.090781 0.456228
v -0.360782 -0.069831 0.511340
v -0.384697 -0.028708 0.597012
v -0.167588 -0.027032 0.355240
v -0.181783 -0.066200 0.438508
v -0.190915 -0.086209 0.492072
v -0.200046 -0.066315 0.545636
v -0.214241 -0.027263 0.628904
v -0.050620 -0.025599 0.376326
v -0.049358 -0.062689 0.456305
v -0.048546 -0.081638 0.507755
v -0.047734 -0.062799 0.559204
v -0.046471 -0.025817 0.639184
v 0.062245 -0.022535 0.376116
v 0.081150 -0.055185 0.443945
v 0.093311 -0.071866 0.487579
v 0.105472 -0.055281 0.531212
v 0.124377 -0.022727 0.599041
v 0.198297 -0.019470 0.334676
v 0.227000 -0.047681 0.388320
v 0.245464 -0.062093 0.422827
v 0.263928 -0.047764 0.457335
v 0.292631 -0.019636 0.510978
v 0.350441 -0.016406 0.253505
v 0.381345 -0.040177 0.294407
v 0.401225 -0.052321 0.320719
v 0.421104 -0.040247 0.347030
v 0.452008 -0.016546 0.387933
v 0.506204 -0.013342 0.139297
v 0.535230 -0.032673 0.169222
v 0.553902 -0.042548 0.188471
v 0.572574 -0.032729 0.207721
v 0.601601 -0.013455 0.237645
v 0.656131 -0.010277 -0.000316
v 0.680885 -0.025168 0.020143
v 0.696808 -0.032776 0.033303
v 0.712732 -0.025212 0.046464
v 0.737486 -0.010365 0.066923
v 0.792268 -0.007213 -0.157858
v 0.811124 -0.017664 -0.145510
v 0.823253 -0.023003 -0.137567
v 0.835382 -0.017695 -0.129623
v 0.854238 -0.007275 -0.117275
v 0.907405 -0.004149 -0.326271
v 0.919053 -0.010160 -0.320581
v 0.926547 -0.013231 -0.316921
v 0.934040 -0.010178 -0.313261
v 0.945688 -0.004184 -0.307571
v 0.994689 -0.001084 -0.499213
v 0.997921 -0.002656 -0.498196
v 1.000000 -0.003458 -0.497541
v 1.002079 -0.002660 -0.496886
v 1.005311 -0.001094 -0.495869
vn 0.6804 -0.0000 -0.7328
vn 0.3232 0.8801 -0.3478
vn 0.2627 0.9234 -0.2798
vn 0.0183 0.9994 0.0285
vn -0.2158 0.9230 0.3187
vn -0.2734 0.8780 0.3930
vn -0.5740 -0.0000 0.8189
vn 0.6459 -0.0000 -0.7634
vn 0.3050 0.8811 -0.3614
vn 0.2488 0.9236 -0.2916
vn 0.0195 0.9995 0.0248
vn -0.2026 0.9233 0.3262
vn -0.2562 0.8791 0.4020
vn -0.5414 -0.0000 0.8408
vn 0.5780 -0.0000 -0.8160
vn 0.2734 0.8810 -0.3861
vn 0.2234 0.9236 -0.3116
vn 0.0201 0.9996 0.0203
vn -0.1785 0.9235 0.3396
vn -0.2259 0.8793 0.4194
vn -0.4775 -0.0000 0.8786
vn 0.5192 -0.0000 -0.8547
vn 0.2457 0.8810 -0.4044
vn 0.2011 0.9236 -0.3265
vn 0.0206 0.9996 0.0177
vn -0.1566 0.9236 0.3500
vn -0.1984 0.8794 0.4329
vn -0.4198 -0.0000 0.9076
vn 0.4627 -0.0000 -0.8865
vn 0.2191 0.8810 -0.4194
vn 0.1795 0.9236 -0.3389
vn 0.0213 0.9996 0.0162
vn -0.1342 0.9236 0.3591
vn -0.1707 0.8794 0.4445
vn -0.3616 -0.0000 0.9323
vn 0.4028 -0.0000 -0.9153
vn 0.1906 0.8810 -0.4331
vn 0.1565 0.9236 -0.3501
vn 0.0225 0.9996 0.0156
vn -0.1091 0.9235 0.3676
vn -0.1396 0.8793 0.4553
vn -0.2967 -0.0000 0.9550
vn 0.3330 -0.0000 -0.9429
vn 0.1573 0.8809 -0.4463
vn 0.1294 0.9235 -0.3610
vn 0.0245 0.9996 0.0158
vn -0.0782 0.9235 0.3756
vn -0.1017 0.8792 0.4655
vn -0.2174 -0.0000 0.9761
vn 0.2488 -0.0000 -0.9686
vn 0.1166 0.8803 -0.4598
vn 0.0952 0.9232 -0.3723
vn 0.0281 0.9995 0.0164
vn -0.0370 0.9233 0.3824
vn -0.0510 0.8788 0.4744
vn -0.1119 -0.0000 0.9937
vn 0.1308 -0.0000 -0.9914
vn 0.0578 0.8793 -0.4727
vn 0.0464 0.9226 -0.3828
vn 0.0500 0.9985 0.0234
vn 0.0499 0.9230 0.3815
vn 0.0525 0.8781 0.4756
vn 0.0964 -0.0000 0.9953
vn -0.0899 -0.0000 -0.9959
vn -0.0500 0.8817 -0.4692
vn -0.0387 0.9236 -0.3813
vn 0.0684 0.9976 0.0112
vn 0.1566 0.9212 0.3561
vn 0.1823 0.8765 0.4456
vn 0.3642 -0.0000 0.9313
vn -0.3446 -0.0000 -0.9387
vn -0.1654 0.8812 -0.4428
vn -0.1305 0.9235 -0.3608
vn 0.0582 0.9983 -0.0084
vn 0.2256 0.9216 0.3159
vn 0.2711 0.8769 0.3970
vn 0.5547 -0.0000 0.8321
vn -0.5045 -0.0000 -0.8634
vn -0.2395 0.8810 -0.4081
vn -0.1905 0.9233 -0.3334
vn 0.0488 0.9986 -0.0187
vn 0.2685 0.9222 0.2783
vn 0.3268 0.8777 0.3506
vn 0.6757 -0.0000 0.7372
vn -0.6150 -0.0000 -0.7885
vn -0.2914 0.8808 -0.3731
vn -0.2328 0.9233 -0.3055
vn 0.0422 0.9988 -0.0243
vn 0.2986 0.9225 0.2445
vn 0.3657 0.8781 0.3087
vn 0.7595 -0.0000 0.6505
vn -0.7009 -0.0000 -0.7132
vn -0.3319 0.8808 -0.3377
vn -0.2659 0.9233 -0.2772
vn 0.0379 0.9989 -0.0284
vn 0.3230 0.9226 0.2108
vn 0.3968 0.8782 0.2671
vn 0.8258 -0.0000 0.5639
vn -0.7754 -0.0000 -0.6315
vn -0.3671 0.8808 -0.2990
vn -0.2947 0.9233 -0.2463
vn 0.0355 0.9988 -0.0323
vn 0.3447 0.9226 0.1733
vn 0.4245 0.8781 0.2209
vn 0.8838 -0.0000 0.4678
vn -0.8461 -0.0000 -0.5331
vn -0.4000 0.8812 -0.2519
vn -0.3216 0.9236 -0.2087
vn 0.0347 0.9987 -0.0370
vn 0.3652 0.9222 0.1272
vn 0.4506 0.8775 0.1642
vn 0.9368 -0.0000 0.3498
vn -0.8809 -0.0000 -0.4733
vn -0.4137 0.8823 -0.2244
vn -0.3342 0.9237 -0.1874
vn 0.0358 0.9986 -0.0395
vn 0.3749 0.9215 0.1012
vn 0.4611 0.8775 0.1316
vn 0.9605 -0.0000 0.2782
vn 0.3232 -0.8801 -0.3478
vn 0.2627 -0.9234 -0.2798
vn 0.0183 -0.9994 0.0285
vn -0.2158 -0.9230 0.3187
vn -0.2734 -0.8780 0.3930
vn 0.3050 -0.8811 -0.3614
vn 0.2488 -0.9236 -0.2916
vn 0.0195 -0.9995 0.0248
vn -0.2026 -0.9233 0.3262
vn -0.2562 -0.8791 0.4020
vn 0.2734 -0.8810 -0.3861
vn 0.2234 -0.9236 -0.3116
vn 0.0201 -0.9996 0.0203
vn -0.1786 -0.9235 0.3396
vn -0.2259 -0.8793 0.4194
vn 0.2457 -0.8810 -0.4044
vn 0.2011 -0.9236 -0.3265
vn 0.0206 -0.9996 0.0177
vn -0.1566 -0.9236 0.3500
vn -0.1984 -0.8794 0.4329
vn 0.2191 -0.8810 -0.4194
vn 0.1795 -0.9236 -0.3389
vn 0.0213 -0.9996 0.0162
vn -0.1342 -0.9236 0.3591
vn -0.1707 -0.8794 0.4445
vn 0.1906 -0.8810 -0.4331
vn 0.1565 -0.9236 -0.3501
vn 0.0225 -0.9996 0.0156
vn -0.1091 -0.9235 0.3676
vn -0.1396 -0.8793 0.4553
vn 0.1573 -0.8809 -0.4463
vn 0.1294 -0.9235 -0.3610
vn 0.0245 -0.9996 0.0158
vn -0.0782 -0.9235 0.3756
vn -0.1017 -0.8792 0.4655
vn 0.1166 -0.8803 -0.4598
vn 0.0952 -0.9232 -0.3723
vn 0.0281 -0.9995 0.0164
vn -0.0370 -0.9233 0.3824
vn -0.0510 -0.8788 0.4744
vn 0.0578 -0.8793 -0.4727
vn 0.0464 -0.9226 -0.3828
vn 0.0500 -0.9985 0.0234
vn 0.0499 -0.9230 0.3815
vn 0.0525 -0.8781 0.4756
vn -0.0500 -0.8817 -0.4692
vn -0.0387 -0.9236 -0.3813
vn 0.0684 -0.9976 0.0112
vn 0.1566 -0.9212 0.3561
vn 0.1823 -0.8765 0.4456
vn -0.1654 -0.8812 -0.4428
vn -0.1305 -0.9235 -0.3608
vn 0.0582 -0.9983 -0.0084
vn 0.2256 -0.9216 0.3159
vn 0.2711 -0.8769 0.3970
vn -0.2395 -0.8810 -0.4081
vn -0.1905 -0.9233 -0.3334
vn 0.0488 -0.9986 -0.0187
vn 0.2685 -0.9222 0.2783
vn 0.3268 -0.8777 0.3506
vn -0.2914 -0.8808 -0.3731
vn -0.2328 -0.9233 -0.3055
vn 0.0422 -0.9988 -0.0243
vn 0.2986 -0.9225 0.2445
vn 0.3657 -0.8781 0.3087
vn -0.3319 -0.8808 -0.3377
vn -0.2659 -0.9233 -0.2772
vn 0.0379 -0.9989 -0.0284
vn 0.3230 -0.9226 0.2108
vn 0.3968 -0.8782 0.2671
vn -0.3671 -0.8808 -0.2990
vn -0.2947 -0.9233 -0.2463
vn 0.0355 -0.9988 -0.0323
vn 0.3447 -0.9226 0.1733
vn 0.4245 -0.8781 0.2209
vn -0.4000 -0.8812 -0.2519
vn -0.3216 -0.9236 -0.2087
vn 0.0347 -0.9987 -0.0370
vn 0.3652 -0.9222 0.1272
vn 0.4506 -0.8775 0.1642
vn -0.4137 -0.8823 -0.2244
vn -0.3342 -0.9237 -0.1874
vn 0.0358 -0.9986 -0.0395
vn 0.3749 -0.9215 0.1012
vn 0.4611 -0.8775 0.1316
vt 0.010998 0.181404
vt 0.072269 0.181404
vt 0.072269 0.101898
vt 0.010998 0.101898
vt 0.010998 0.260911
vt 0.072269 0.260911
vt 0.010998 0.340417
vt 0.072269 0.340417
vt 0.010998 0.419924
vt 0.072269 0.419924
vt 0.010998 0.499430
vt 0.072269 0.499430
vt 0.010998 0.578937
vt 0.072269 0.578937
vt 0.133540 0.181404
vt 0.133540 0.101898
vt 0.133540 0.260911
vt 0.133540 0.340417
vt 0.133540 0.419924
vt 0.133540 0.499430
vt 0.133540 0.578937
vt 0.194811 0.181404
vt 0.194811 0.101898
vt 0.194811 0.260911
vt 0.194811 0.340417
vt 0.194811 0.419924
vt 0.194811 0.499431
vt 0.194811 0.578937
vt 0.256082 0.181404
vt 0.256082 0.101898
vt 0.256082 0.260911
vt 0.256082 0.340417
vt 0.256082 0.419924
vt 0.256082 0.499431
vt 0.256082 0.578937
vt 0.317353 0.181404
vt 0.317353 0.101898
vt 0.317353 0.260911
vt 0.317353 0.340417
vt 0.317353 0.419924
vt 0.317353 0.499431
vt 0.317353 0.578937
vt 0.378624 0.181404
vt 0.378624 0.101898
vt 0.378624 0.260911
vt 0.378624 0.340417
vt 0.378624 0.419924
vt 0.378624 0.499431
vt 0.378624 0.578937
vt 0.439894 0.181404
vt 0.439894 0.101898
vt 0.439894 0.260911
vt 0.439894 0.340417
vt 0.439894 0.419924
vt 0.439894 0.499431
vt 0.439894 0.578937
vt 0.501165 0.181404
vt 0.501165 0.101898
vt 0.501165 0.260911
vt 0.501165 0.340417
vt 0.501165 0.419924
vt 0.501165 0.499431
vt 0.501165 0.578937
vt 0.562436 0.181404
vt 0.562436 0.101898
vt 0.562436 0.260911
vt 0.562436 0.340417
vt 0.562436 0.419924
vt 0.562436 0.499431
vt 0.562436 0.578937
vt 0.623707 0.181404
vt 0.623707 0.101898
vt 0.623707 0.260911
vt 0.623707 0.340417
vt 0.623707 0.419924
vt 0.623707 0.499431
vt 0.623707 0.578937
vt 0.684978 0.181404
vt 0.684978 0.101898
vt 0.684978 0.260911
vt 0.684978 0.340417
vt 0.684978 0.419924
vt 0.684978 0.499431
vt 0.684978 0.578937
vt 0.746249 0.181404
vt 0.746249 0.101898
vt 0.746249 0.260911
vt 0.746249 0.340417
vt 0.746249 0.419924
vt 0.746249 0.499431
vt 0.746249 0.578937
vt 0.807520 0.181404
vt 0.807520 0.101898
vt 0.807520 0.260911
vt 0.807520 0.340417
vt 0.807520 0.419924
vt 0.807520 0.499431
vt 0.807520 0.578937
vt 0.868791 0.181404
vt 0.868791 0.101898
vt 0.868791 0.260911
vt 0.868791 0.340417
vt 0.868791 0.419924
vt 0.868791 0.499431
vt 0.868791 0.578937
vt 0.930062 0.181404
vt 0.930062 0.101898
vt 0.930062 0.260911
vt 0.930062 0.340417
vt 0.930062 0.419924
vt 0.930062 0.499431
vt 0.930062 0.578937
vt 0.991333 0.181404
vt 0.991333 0.101898
vt 0.991333 0.260911
vt 0.991333 0.340417
vt 0.991333 0.419924
vt 0.991333 0.499431
vt 0.991333 0.578937
vt 0.010998 0.022391
vt 0.072269 0.022391
vt 0.010998 0.896963
vt 0.010998 0.976470
vt 0.072269 0.976470
vt 0.072269 0.896963
vt 0.010998 0.817457
vt 0.072269 0.817457
vt 0.010998 0.737950
vt 0.072269 0.737950
vt 0.010998 0.658444
vt 0.072269 0.658444
vt 0.133540 0.022391
vt 0.133540 0.976470
vt 0.133540 0.896963
vt 0.133540 0.817457
vt 0.133540 0.737950
vt 0.133540 0.658444
vt 0.194811 0.022391
vt 0.194811 0.976470
vt 0.194811 0.896963
vt 0.194811 0.817457
vt 0.194811 0.737950
vt 0.194811 0.658444
vt 0.256082 0.022391
vt 0.256082 0.976470
vt 0.256082 0.896963
vt 0.256082 0.817457
vt 0.256082 0.737950
vt 0.256082 0.658444
vt 0.317353 0.022391
vt 0.317353 0.976470
vt 0.317353 0.896963
vt 0.317353 0.817457
vt 0.317353 0.737950
vt 0.317353 0.658444
vt 0.378624 0.022391
vt 0.378623 0.976470
vt 0.378623 0.896963
vt 0.378623 0.817457
vt 0.378624 0.737950
vt 0.378624 0.658444
vt 0.439894 0.022391
vt 0.439894 0.976470
vt 0.439894 0.896963
vt 0.439894 0.817457
vt 0.439894 0.737950
vt 0.439894 0.658444
vt 0.501165 0.022391
vt 0.501165 0.976470
vt 0.501165 0.896963
vt 0.501165 0.817457
vt 0.501165 0.737950
vt 0.501165 0.658444
vt 0.562436 0.022391
vt 0.562436 0.976470
vt 0.562436 0.896963
vt 0.562436 0.817457
vt 0.562436 0.737950
vt 0.562436 0.658444
vt 0.623707 0.022391
vt 0.623707 0.976470
vt 0.623707 0.896963
vt 0.623707 0.817457
vt 0.623707 0.737950
vt 0.623707 0.658444
vt 0.684978 0.022391
vt 0.684978 0.976470
vt 0.684978 0.896963
vt 0.684978 0.817457
vt 0.684978 0.737950
vt 0.684978 0.658444
vt 0.746249 0.022391
vt 0.746249 0.976470
vt 0.746249 0.896963
vt 0.746249 0.817457
vt 0.746249 0.737950
vt 0.746249 0.658444
vt 0.807520 0.022391
vt 0.807520 0.976470
vt 0.807520 0.896963
vt 0.807520 0.817457
vt 0.807520 0.737950
vt 0.807520 0.658444
vt 0.868791 0.022391
vt 0.868791 0.976470
vt 0.868791 0.896963
vt 0.868791 0.817457
vt 0.868791 0.737950
vt 0.868791 0.658444
vt 0.930062 0.022391
vt 0.930062 0.976470
vt 0.930062 0.896963
vt 0.930062 0.817457
vt 0.930062 0.737950
vt 0.930062 0.658444
vt 0.991333 0.022391
vt 0.991332 0.976470
vt 0.991332 0.896963
vt 0.991333 0.817457
vt 0.991333 0.737950
vt 0.991333 0.658444
s 1
f 2/1/2 9/2/9 8/3/8 1/4/1
f 3/5/3 10/6/10 9/2/9 2/1/2
f 4/7/4 11/8/11 10/6/10 3/5/3
f 5/9/5 12/10/12 11/8/11 4/7/4
f 6/11/6 13/12/13 12/10/12 5/9/5
f 7/13/7 14/14/14 13/12/13 6/11/6
f 9/2/9 16/15/16 15/16/15 8/3/8
f 10/6/10 17/17/17 16/15/16 9/2/9
f 11/8/11 18/18/18 17/17/17 10/6/10
f 12/10/12 19/19/19 18/18/18 11/8/11
f 13/12/13 20/20/20 19/19/19 12/10/12
f 14/14/14 21/21/21 20/20/20 13/12/13
f 16/15/16 23/22/23 22/23/22 15/16/15
f 17/17/17 24/24/24 23/22/23 16/15/16
f 18/18/18 25/25/25 24/24/24 17/17/17
f 19/19/19 26/26/26 25/25/25 18/18/18
f 20/20/20 27/27/27 26/26/26 19/19/19
f 21/21/21 28/28/28 27/27/27 20/20/20
f 23/22/23 30/29/30 29/30/29 22/23/22
f 24/24/24 31/31/31 30/29/30 23/22/23
f 25/25/25 32/32/32 31/31/31 24/24/24
f 26/26/26 33/33/33 32/32/32 25/25/25
f 27/27/27 34/34/34 33/33/33 26/26/26
f 28/28/28 35/35/35 34/34/34 27/27/27
f 30/29/30 37/36/37 36/37/36 29/30/29
f 31/31/31 38/38/38 37/36/37 30/29/30
f 32/32/32 39/39/39 38/38/38 31/31/31
f 33/33/33 40/40/40 39/39/39 32/32/32
f 34/34/34 41/41/41 40/40/40 33/33/33
f 35/35/35 42/42/42 41/41/41 34/34/34
f 37/36/37 44/43/44 43/44/43 36/37/36
f 38/38/38 45/45/45 44/43/44 37/36/37
f 39/39/39 46/46/46 45/45/45 38/38/38
f 40/40/40 47/47/47 46/46/46 39/39/39
f 41/41/41 48/48/48 47/47/47 40/40/40
f 42/42/42 49/49/49 48/48/48 41/41/41
f 44/43/44 51/50/51 50/51/50 43/44/43
f 45/45/45 52/52/52 51/50/51 44/43/44
f 46/46/46 53/53/53 52/52/52 45/45/45
f 47/47/47 54/54/54 53/53/53 46/46/46
f 48/48/48 55/55/55 54/54/54 47/47/47
f 49/49/49 56/56/56 55/55/55 48/48/48
f 51/50/51 58/57/58 57/58/57 50/51/50
f 52/52/52 59/59/59 58/57/58 51/50/51
f 53/53/53 60/60/60 59/59/59 52/52/52
f 54/54/54 61/61/61 60/60/60 53/53/53
f 55/55/55 62/62/62 61/61/61 54/54/54
f 56/56/56 63/63/63 62/62/62 55/55/55
f 58/57/58 65/64/65 64/65/64 57/58/57
f 59/59/59 66/66/66 65/64/65 58/57/58
f 60/60/60 67/67/67 66/66/66 59/59/59
f 61/61/61 68/68/68 67/67/67 60/60/60
f 62/62/62 69/69/69 68/68/68 61/61/61
f 63/63/63 70/70/70 69/69/69 62/62/62
f 65/64/65 72/71/72 71/72/71 64/65/64
f 66/66/66 73/73/73 72/71/72 65/64/65
f 67/67/67 74/74/74 73/73/73 66/66/66
f 68/68/68 75/75/75 74/74/74 67/67/67
f 69/69/69 76/76/76 75/75/75 68/68/68
f 70/70/70 77/77/77 76/76/76 69/69/69
f 72/71/72 79/78/79 78/79/78 71/72/71
f 73/73/73 80/80/80 79/78/79 72/71/72
f 74/74/74 81/81/81 80/80/80 73/73/73
f 75/75/75 82/82/82 81/81/81 74/74/74
f 76/76/76 83/83/83 82/82/82 75/75/75
f 77/77/77 84/84/84 83/83/83 76/76/76
f 79/78/79 86/85/86 85/86/85 78/79/78
f 80/80/80 87/87/87 86/85/86 79/78/79
f 81/81/81 88/88/88 87/87/87 80/80/80
f 82/82/82 89/89/89 88/88/88 81/81/81
f 83/83/83 90/90/90 89/89/89 82/82/82
f 84/84/84 91/91/91 90/90/90 83/83/83
f 86/85/86 93/92/93 92/93/92 85/86/85
f 87/87/87 94/94/94 93/92/93 86/85/86
f 88/88/88 95/95/95 94/94/94 87/87/87
f 89/89/89 96/96/96 95/95/95 88/88/88
f 90/90/90 97/97/97 96/96/96 89/89/89
f 91/91/91 98/98/98 97/97/97 90/90/90
f 93/92/93 100/99/100 99/100/99 92/93/92
f 94/94/94 101/101/101 100/99/100 93/92/93
f 95/95/95 102/102/102 101/101/101 94/94/94
f 96/96/96 103/103/103 102/102/102 95/95/95
f 97/97/97 104/104/104 103/103/103 96/96/96
f 98/98/98 105/105/105 104/104/104 97/97/97
f 100/99/100 107/106/107 106/107/106 99/100/99
f 101/101/101 108/108/108 107/106/107 100/99/100
f 102/102/102 109/109/109 108/108/108 101/101/101
f 103/103/103 110/110/110 109/109/109 102/102/102
f 104/104/104 111/111/111 110/110/110 103/103/103
f 105/105/105 112/112/112 111/111/111 104/104/104
f 107/106/107 114/113/114 113/114/113 106/107/106
f 108/108/108 115/115/115 114/113/114 107/106/107
f 109/109/109 116/116/116 115/115/115 108/108/108
f 110/110/110 117/117/117 116/116/116 109/109/109
f 111/111/111 118/118/118 117/117/117 110/110/110
f 112/112/112 119/119/119 118/118/118 111/111/111
f 120/120/120 1/4/1 8/3/8 125/121/125
f 121/122/121 120/123/120 125/124/125 126/125/126
f 122/126/122 121/122/121 126/125/126 127/127/127
f 123/128/123 122/126/122 127/127/127 128/129/128
f 124/130/124 123/128/123 128/129/128 129/131/129
f 7/13/7 124/130/124 129/131/129 14/14/14
f 125/121/125 8/3/8 15/16/15 130/132/130
f 126/125/126 125/124/125 130/133/130 131/134/131
f 127/127/127 126/125/126 131/134/131 132/135/132
f 128/129/128 127/127/127 132/135/132 133/136/133
f 129/131/129 128/129/128 133/136/133 134/137/134
f 14/14/14 129/131/129 134/137/134 21/21/21
f 130/132/130 15/16/15 22/23/22 135/138/135
f 131/134/131 130/133/130 135/139/135 136/140/136
f 132/135/132 131/134/131 136/140/136 137/141/137
f 133/136/133 132/135/132 137/141/137 138/142/138
f 134/137/134 133/136/133 138/142/138 139/143/139
f 21/21/21 134/137/134 139/143/139 28/28/28
f 135/138/135 22/23/22 29/30/29 140/144/140
f 136/140/136 135/139/135 140/145/140 141/146/141
f 137/141/137 136/140/136 141/146/141 142/147/142
f 138/142/138 137/141/137 142/147/142 143/148/143
f 139/143/139 138/142/138 143/148/143 144/149/144
f 28/28/28 139/143/139 144/149/144 35/35/35
f 140/144/140 29/30/29 36/37/36 145/150/145
f 141/146/141 140/145/140 145/151/145 146/152/146
f 142/147/142 141/146/141 146/152/146 147/153/147
f 143/148/143 142/147/142 147/153/147 148/154/148
f 144/149/144 143/148/143 148/154/148 149/155/149
f 35/35/35 144/149/144 149/155/149 42/42/42
f 145/150/145 36/37/36 43/44/43 150/156/150
f 146/152/146 145/151/145 150/157/150 151/158/151
f 147/153/147 146/152/146 151/158/151 152/159/152
f 148/154/148 147/153/147 152/159/152 153/160/153
f 149/155/149 148/154/148 153/160/153 154/161/154
f 42/42/42 149/155/149 154/161/154 49/49/49
f 150/156/150 43/44/43 50/51/50 155/162/155
f 151/158/151 150/157/150 155/163/155 156/164/156
f 152/159/152 151/158/151 156/164/156 157/165/157
f 153/160/153 152/159/152 157/165/157 158/166/158
f 154/161/154 153/160/153 158/166/158 159/167/159
f 49/49/49 154/161/154 159/167/159 56/56/56
f 155/162/155 50/51/50 57/58/57 160/168/160
f 156/164/156 155/163/155 160/169/160 161/170/161
f 157/165/157 156/164/156 161/170/161 162/171/162
f 158/166/158 157/165/157 162/171/162 163/172/163
f 159/167/159 158/166/158 163/172/163 164/173/164
f 56/56/56 159/167/159 164/173/164 63/63/63
f 160/168/160 57/58/57 64/65/64 165/174/165
f 161/170/161 160/169/160 165/175/165 166/176/166
f 162/171/162 161/170/161 166/176/166 167/177/167
f 163/172/163 162/171/162 167/177/167 168/178/168
f 164/173/164 163/172/163 168/178/168 169/179/169
f 63/63/63 164/173/164 169/179/169 70/70/70
f 165/174/165 64/65/64 71/72/71 170/180/170
f 166/176/166 165/175/165 170/181/170 171/182/171
f 167/177/167 166/176/166 171/182/171 172/183/172
f 168/178/168 167/177/167 172/183/172 173/184/173
f 169/179/169 168/178/168 173/184/173 174/185/174
f 70/70/70 169/179/169 174/185/174 77/77/77
f 170/180/170 71/72/71 78/79/78 175/186/175
f 171/182/171 170/181/170 175/187/175 176/188/176
f 172/183/172 171/182/171 176/188/176 177/189/177
f 173/184/173 172/183/172 177/189/177 178/190/178
f 174/185/174 173/184/173 178/190/178 179/191/179
f 77/77/77 174/185/174 179/191/179 84/84/84
f 175/186/175 78/79/78 85/86/85 180/192/180
f 176/188/176 175/187/175 180/193/180 181/194/181
f 177/189/177 176/188/176 181/194/181 182/195/182
f 178/190/178 177/189/177 182/195/182 183/196/183
f 179/191/179 178/190/178 183/196/183 184/197/184
f 84/84/84 179/191/179 184/197/184 91/91/91
f 180/192/180 85/86/85 92/93/92 185/198/185
f 181/194/181 180/193/180 185/199/185 186/200/186
f 182/195/182 181/194/181 186/200/186 187/201/187
f 183/196/183 182/195/182 187/201/187 188/202/188
f 184/197/184 183/196/183 188/202/188 189/203/189
f 91/91/91 184/197/184 189/203/189 98/98/98
f 185/198/185 92/93/92 99/100/99 190/204/190
f 186/200/186 185/199/185 190/205/190 191/206/191
f 187/201/187 186/200/186 191/206/191 192/207/192
f 188/202/188 187/201/187 192/207/192 193/208/193
f 189/203/189 188/202/188 193/208/193 194/209/194
f 98/98/98 189/203/189 194/209/194 105/105/105
f 190/204/190 99/100/99 106/107/106 195/210/195
f 191/206/191 190/205/190 195/211/195 196/212/196
f 192/207/192 191/206/191 196/212/196 197/213/197
f 193/208/193 192/207/192 197/213/197 198/214/198
f 194/209/194 193/208/193 198/214/198 199/215/199
f 105/105/105 194/209/194 199/215/199 112/112/112
f 195/210/195 106/107/106 113/114/113 200/216/200
f 196/212/196 195/211/195 200/217/200 201/218/201
f 197/213/197 196/212/196 201/218/201 202/219/202
f 198/214/198 197/213/197 202/219/202 203/220/203
f 199/215/199 198/214/198 203/220/203 204/221/204
f 112/112/112 199/215/199 204/221/204 119/119/119
